<svg width="24" height="24" viewBox="0 0 24 24" fill="none" xmlns="http://www.w3.org/2000/svg">
<circle cx="15.6926" cy="9.96849" r="2.02074" fill="url(#paint0_linear_2328_1812)"/>
<path fill-rule="evenodd" clip-rule="evenodd" d="M14.6955 12.5492C14.1486 12.338 13.6856 11.9581 13.3705 11.4731L12.5393 12.3726C12.2914 12.641 11.88 12.6768 11.5894 12.4554C10.6206 11.7173 9.25346 11.8172 8.40229 12.6884L6.52912 14.6057C6.20039 14.9422 6.20667 15.4814 6.54313 15.8101C6.8796 16.1389 7.41884 16.1326 7.74756 15.7961L9.62074 13.8788C9.8708 13.6229 10.2724 13.5935 10.5571 13.8104C11.5463 14.5641 12.9464 14.4421 13.7904 13.5287L14.6955 12.5492Z" fill="url(#paint1_linear_2328_1812)"/>
<rect x="2.98856" y="2.98856" width="18.0229" height="18.0229" rx="4.28376" stroke="url(#paint2_linear_2328_1812)" stroke-width="1.97712"/>
<defs>
<linearGradient id="paint0_linear_2328_1812" x1="13.6873" y1="8.069" x2="18.1791" y2="8.70615" gradientUnits="userSpaceOnUse">
<stop stop-color="#F16B41"/>
<stop offset="1" stop-color="#C51841"/>
</linearGradient>
<linearGradient id="paint1_linear_2328_1812" x1="6.31872" y1="11.6105" x2="15.2468" y2="13.936" gradientUnits="userSpaceOnUse">
<stop stop-color="#F16B41"/>
<stop offset="1" stop-color="#C51841"/>
</linearGradient>
<linearGradient id="paint2_linear_2328_1812" x1="2.07634" y1="2.6" x2="24.3046" y2="5.75309" gradientUnits="userSpaceOnUse">
<stop stop-color="#F16B41"/>
<stop offset="1" stop-color="#C51841"/>
</linearGradient>
</defs>
</svg>
