<svg width="40" height="40" viewBox="0 0 40 40" fill="none" xmlns="http://www.w3.org/2000/svg">
<rect width="40" height="40" fill="url(#paint0_linear_1570_9795)"/>
<mask id="path-1-inside-1_1570_9795" fill="white">
<path d="M21.2517 14.9658C20.8271 14.57 20.162 14.5934 19.7662 15.0179L13.2832 21.9722C13.0854 22.1845 12.9841 22.469 13.0033 22.7585L13.1988 25.7038C13.2356 26.2576 13.6965 26.6873 14.2515 26.6852L17.2034 26.674C17.4935 26.6729 17.7703 26.5519 17.9682 26.3397L24.4512 19.3854C24.847 18.9608 24.8237 18.2958 24.3991 17.9L21.2517 14.9658Z"/>
</mask>
<path d="M21.2517 14.9658L22.6334 13.4836V13.4836L21.2517 14.9658ZM19.7662 15.0179L21.2485 16.3997H21.2485L19.7662 15.0179ZM13.2832 21.9722L11.801 20.5905L13.2832 21.9722ZM13.0033 22.7585L10.9813 22.8927V22.8927L13.0033 22.7585ZM13.1988 25.7038L15.2208 25.5696L15.2208 25.5696L13.1988 25.7038ZM14.2515 26.6852L14.2592 28.7116H14.2592L14.2515 26.6852ZM17.2034 26.674L17.2111 28.7004H17.2111L17.2034 26.674ZM17.9682 26.3397L19.4504 27.7215L17.9682 26.3397ZM24.4512 19.3854L25.9334 20.7672L24.4512 19.3854ZM24.3991 17.9L23.0173 19.3822L24.3991 17.9ZM22.6334 13.4836C21.3903 12.3247 19.443 12.393 18.284 13.6362L21.2485 16.3997C20.8811 16.7938 20.2639 16.8154 19.8699 16.4481L22.6334 13.4836ZM18.284 13.6362L11.801 20.5905L14.7654 23.354L21.2485 16.3997L18.284 13.6362ZM11.801 20.5905C11.2217 21.2119 10.9251 22.0451 10.9813 22.8927L15.0252 22.6243C15.0431 22.893 14.9491 23.1571 14.7654 23.354L11.801 20.5905ZM10.9813 22.8927L11.1768 25.8381L15.2208 25.5696L15.0252 22.6243L10.9813 22.8927ZM11.1768 25.8381C11.2845 27.4595 12.6342 28.7178 14.2592 28.7116L14.2438 24.6588C14.7588 24.6569 15.1866 25.0557 15.2208 25.5696L11.1768 25.8381ZM14.2592 28.7116L17.2111 28.7004L17.1957 24.6476L14.2438 24.6588L14.2592 28.7116ZM17.2111 28.7004C18.0607 28.6972 18.8711 28.3429 19.4504 27.7215L16.4859 24.9579C16.6696 24.7609 16.9264 24.6486 17.1957 24.6476L17.2111 28.7004ZM19.4504 27.7215L25.9334 20.7672L22.9689 18.0036L16.4859 24.9579L19.4504 27.7215ZM25.9334 20.7672C27.0923 19.524 27.024 17.5767 25.7809 16.4177L23.0173 19.3822C22.6233 19.0148 22.6016 18.3976 22.9689 18.0036L25.9334 20.7672ZM25.7809 16.4177L22.6334 13.4836L19.8699 16.4481L23.0173 19.3822L25.7809 16.4177Z" fill="white" mask="url(#path-1-inside-1_1570_9795)"/>
<path d="M22.8786 12.8292C22.4677 12.4494 21.8267 12.4746 21.4469 12.8855C21.067 13.2964 21.0923 13.9375 21.5032 14.3173L22.8786 12.8292ZM25.1021 17.6438C25.5131 18.0236 26.1541 17.9984 26.5339 17.5875C26.9137 17.1766 26.8885 16.5355 26.4776 16.1557L25.1021 17.6438ZM21.5032 14.3173L25.1021 17.6438L26.4776 16.1557L22.8786 12.8292L21.5032 14.3173Z" fill="white"/>
<defs>
<linearGradient id="paint0_linear_1570_9795" x1="0.152672" y1="1.2" x2="44.6093" y2="7.50618" gradientUnits="userSpaceOnUse">
<stop stop-color="#F16B41"/>
<stop offset="1" stop-color="#C51841"/>
</linearGradient>
</defs>
</svg>
