<svg width="24" height="24" viewBox="0 0 24 24" fill="none" xmlns="http://www.w3.org/2000/svg">
<g opacity="0.5">
<path d="M16.4666 10.1859C16.297 10.4575 16.3986 10.8345 16.7168 10.8699C16.8178 10.8811 16.9206 10.8869 17.0246 10.8869C18.5441 10.8869 19.7759 9.65514 19.7759 8.13565C19.7759 6.61616 18.5441 5.38437 17.0246 5.38437C17.0106 5.38437 16.9966 5.38447 16.9826 5.38468C16.6622 5.38948 16.5247 5.75498 16.6673 6.04192C16.9506 6.612 17.1099 7.25459 17.1099 7.93438C17.1099 8.76108 16.8743 9.53276 16.4666 10.1859Z" fill="white"/>
<path d="M20.0993 15.9965C20.1897 16.2835 20.4883 16.4954 20.7629 16.3722C21.5324 16.0271 21.999 15.5335 21.999 14.887C21.999 13.4744 19.7717 11.8667 17.0245 11.8667C16.7193 11.8667 16.4207 11.8865 16.1307 11.9237C15.6688 11.9829 15.6947 12.5863 16.1357 12.7361C18.1897 13.4343 19.6961 14.7167 20.0993 15.9965Z" fill="white"/>
<path d="M6.97633 10.8869C7.08041 10.8869 7.18314 10.8811 7.28422 10.8699C7.60242 10.8345 7.70393 10.4575 7.5344 10.1859C7.12668 9.53276 6.89108 8.76108 6.89108 7.93438C6.89108 7.25459 7.05038 6.612 7.33369 6.04192C7.47629 5.75498 7.33873 5.38948 7.01835 5.38468C7.00437 5.38447 6.99036 5.38437 6.97633 5.38437C5.45684 5.38437 4.22505 6.61616 4.22505 8.13565C4.22505 9.65514 5.45684 10.8869 6.97633 10.8869Z" fill="white"/>
<path d="M2.00195 14.887C2.00195 15.5335 2.46856 16.0271 3.23807 16.3722C3.51265 16.4954 3.81129 16.2835 3.90172 15.9965C4.30488 14.7167 5.81128 13.4343 7.8653 12.7361C8.30624 12.5863 8.33219 11.9829 7.87026 11.9237C7.58032 11.8865 7.28163 11.8667 6.97651 11.8667C4.22929 11.8667 2.00195 13.4744 2.00195 14.887Z" fill="white"/>
<path d="M14.8615 7.93438C14.8615 9.4872 13.6027 10.746 12.0499 10.746C10.497 10.746 9.23823 9.4872 9.23823 7.93438C9.23823 6.38155 10.497 5.12274 12.0499 5.12274C13.6027 5.12274 14.8615 6.38155 14.8615 7.93438ZM12.0497 18.8778C10.2705 18.8778 8.7292 18.6546 7.66602 18.2446C6.56128 17.8185 6.27215 17.3305 6.27215 16.9419C6.27215 16.4355 6.71435 15.6544 7.82135 14.943C8.88079 14.2621 10.3781 13.7713 12.0497 13.7713C13.7213 13.7713 15.2187 14.2621 16.2782 14.943C17.3854 15.6545 17.8276 16.4356 17.8276 16.9419C17.8276 17.3305 17.5384 17.8185 16.4336 18.2446C15.3703 18.6546 13.8289 18.8778 12.0497 18.8778Z" stroke="white" stroke-width="1.71813"/>
</g>
</svg>
