<svg width="24" height="24" viewBox="0 0 24 24" fill="none" xmlns="http://www.w3.org/2000/svg">
<path fill-rule="evenodd" clip-rule="evenodd" d="M20.0001 12C20.0001 16.4183 16.4183 20.0001 12 20.0001C7.58167 20.0001 3.9999 16.4183 3.9999 12C3.9999 7.58167 7.58167 3.9999 12 3.9999C16.4183 3.9999 20.0001 7.58167 20.0001 12ZM22.001 12C22.001 17.5234 17.5234 22.001 12 22.001C6.47662 22.001 1.99902 17.5234 1.99902 12C1.99902 6.47662 6.47662 1.99902 12 1.99902C17.5234 1.99902 22.001 6.47662 22.001 12ZM13.0005 7.79702C13.0005 7.24449 12.5526 6.79658 12.0001 6.79658C11.4475 6.79658 10.9996 7.24449 10.9996 7.79702V11.8046C10.9996 12.5177 11.3256 13.1917 11.8846 13.6345L15.0501 16.1419C15.4832 16.4849 16.1124 16.4119 16.4555 15.9788C16.7986 15.5457 16.7256 14.9165 16.2925 14.5734L13.1269 12.066C13.0471 12.0028 13.0005 11.9065 13.0005 11.8046V7.79702Z" fill="white"/>
</svg>
