<svg width="24" height="24" viewBox="0 0 24 24" fill="none" xmlns="http://www.w3.org/2000/svg">
<g opacity="0.5">
<path fill-rule="evenodd" clip-rule="evenodd" d="M21.001 12C21.001 16.9711 16.9711 21.001 12 21.001C7.0289 21.001 2.99902 16.9711 2.99902 12C2.99902 7.0289 7.0289 2.99902 12 2.99902C16.9711 2.99902 21.001 7.0289 21.001 12ZM22.001 12C22.001 17.5234 17.5234 22.001 12 22.001C6.47662 22.001 1.99902 17.5234 1.99902 12C1.99902 6.47662 6.47662 1.99902 12 1.99902C17.5234 1.99902 22.001 6.47662 22.001 12ZM12.5001 7.79702C12.5001 7.52087 12.2762 7.29702 12.0001 7.29702C11.7239 7.29702 11.5001 7.52087 11.5001 7.79702V11.8046C11.5001 12.3648 11.7561 12.8943 12.1953 13.2422L15.3608 15.7496C15.5773 15.921 15.8918 15.8846 16.0632 15.6681C16.2347 15.4516 16.1982 15.1372 15.9817 14.9657L12.8162 12.4583C12.6165 12.3001 12.5001 12.0594 12.5001 11.8046V7.79702Z" fill="white"/>
<path d="M12.1953 13.2422L12.5057 12.8502L12.1953 13.2422ZM15.3608 15.7496L15.6713 15.3576L15.6713 15.3576L15.3608 15.7496ZM15.9817 14.9657L15.6713 15.3576L15.9817 14.9657ZM12.8162 12.4583L12.5057 12.8502H12.5057L12.8162 12.4583ZM12 21.501C17.2473 21.501 21.501 17.2473 21.501 12H20.501C20.501 16.695 16.695 20.501 12 20.501V21.501ZM2.49902 12C2.49902 17.2473 6.75276 21.501 12 21.501V20.501C7.30504 20.501 3.49902 16.695 3.49902 12H2.49902ZM12 2.49902C6.75276 2.49902 2.49902 6.75276 2.49902 12H3.49902C3.49902 7.30504 7.30504 3.49902 12 3.49902V2.49902ZM21.501 12C21.501 6.75276 17.2473 2.49902 12 2.49902V3.49902C16.695 3.49902 20.501 7.30504 20.501 12H21.501ZM12 22.501C17.7995 22.501 22.501 17.7995 22.501 12H21.501C21.501 17.2473 17.2473 21.501 12 21.501V22.501ZM1.49902 12C1.49902 17.7995 6.20047 22.501 12 22.501V21.501C6.75276 21.501 2.49902 17.2473 2.49902 12H1.49902ZM12 1.49902C6.20047 1.49902 1.49902 6.20047 1.49902 12H2.49902C2.49902 6.75276 6.75276 2.49902 12 2.49902V1.49902ZM22.501 12C22.501 6.20047 17.7995 1.49902 12 1.49902V2.49902C17.2473 2.49902 21.501 6.75276 21.501 12H22.501ZM12.0001 7.79702H13.0001C13.0001 7.24473 12.5523 6.79702 12.0001 6.79702V7.79702ZM12.0001 7.79702V6.79702C11.4478 6.79702 11.0001 7.24473 11.0001 7.79702H12.0001ZM12.0001 11.8046V7.79702H11.0001V11.8046H12.0001ZM12.5057 12.8502C12.1863 12.5972 12.0001 12.2121 12.0001 11.8046H11.0001C11.0001 12.5176 11.3259 13.1914 11.8848 13.6341L12.5057 12.8502ZM15.6713 15.3576L12.5057 12.8502L11.8848 13.6341L15.0504 16.1415L15.6713 15.3576ZM15.6713 15.3576V15.3576L15.0504 16.1415C15.4833 16.4844 16.1123 16.4115 16.4552 15.9786L15.6713 15.3576ZM15.6713 15.3576V15.3576L16.4552 15.9786C16.7981 15.5456 16.7251 14.9167 16.2922 14.5738L15.6713 15.3576ZM12.5057 12.8502L15.6713 15.3576L16.2922 14.5738L13.1266 12.0664L12.5057 12.8502ZM12.0001 11.8046C12.0001 12.2121 12.1863 12.5972 12.5057 12.8502L13.1266 12.0664C13.0467 12.003 13.0001 11.9066 13.0001 11.8046H12.0001ZM12.0001 7.79702V11.8046H13.0001V7.79702H12.0001Z" fill="white"/>
</g>
</svg>
