<svg width="40" height="40" viewBox="0 0 40 40" fill="none" xmlns="http://www.w3.org/2000/svg">
<path d="M23.0016 13.2711L26.1076 13.2711C26.6006 13.2711 27.0002 13.6708 27.0002 14.1638C27.0002 14.6567 26.6006 15.0564 26.1076 15.0564L14.3936 15.0564C13.9006 15.0564 13.501 14.6567 13.501 14.1638C13.501 13.6708 13.9006 13.2711 14.3936 13.2711L17.4995 13.2711C17.8405 12.5131 18.6022 11.9854 19.4873 11.9854H21.0139C21.8989 11.9854 22.6607 12.5131 23.0016 13.2711Z" fill="white"/>
<path fill-rule="evenodd" clip-rule="evenodd" d="M25.364 25.7105C25.1731 26.9651 24.0943 27.8922 22.8253 27.8922H17.9246C16.6556 27.8922 15.5768 26.9651 15.3859 25.7105L14.1666 17.698C14.0247 16.7654 14.7465 15.9254 15.6898 15.9254H25.0601C26.0034 15.9254 26.7252 16.7654 26.5833 17.698L25.364 25.7105ZM22.8253 26.1069C23.2121 26.1069 23.5409 25.8243 23.5991 25.4419L24.6444 18.5727C24.7134 18.1192 24.3623 17.7107 23.9036 17.7107H16.8464C16.3876 17.7107 16.0365 18.1192 16.1055 18.5727L17.1509 25.4419C17.209 25.8243 17.5378 26.1069 17.9246 26.1069H22.8253Z" fill="white"/>
<rect x="1" y="1" width="38" height="38" stroke="url(#paint0_linear_1570_9802)" stroke-width="2"/>
<defs>
<linearGradient id="paint0_linear_1570_9802" x1="0.152672" y1="1.2" x2="44.6093" y2="7.50618" gradientUnits="userSpaceOnUse">
<stop stop-color="#F16B41"/>
<stop offset="1" stop-color="#C51841"/>
</linearGradient>
</defs>
</svg>
