<svg width="24" height="24" viewBox="0 0 24 24" fill="none" xmlns="http://www.w3.org/2000/svg">
<g opacity="0.5">
<path fill-rule="evenodd" clip-rule="evenodd" d="M6.88019 5.68577H8.02482H15.9743H17.1192L17.4944 5.77494C18.9455 6.11984 20.0232 7.42708 20.0232 8.98122V16.9286C20.0232 18.7486 18.5478 20.224 16.7278 20.224H7.27173C5.45171 20.224 3.97629 18.7486 3.97629 16.9286V8.98121C3.97629 7.42717 5.05389 6.11998 6.5049 5.775L6.88019 5.68577ZM6.04756 3.70851V3.85135C3.72586 4.40333 1.99902 6.49061 1.99902 8.98121V16.9286C1.99902 19.8406 4.35969 22.2013 7.27173 22.2013H16.7278C19.6398 22.2013 22.0005 19.8406 22.0005 16.9286V8.98122C22.0005 6.49048 20.2735 4.40311 17.9516 3.85126L17.9516 3.70851L17.9516 2.78912L17.9516 2.78773C17.9516 2.24172 17.509 1.7991 16.963 1.7991C16.4169 1.7991 15.9743 2.24172 15.9743 2.78773V2.78912V3.70851H13.9971H10.0021H8.02482V2.78728C8.02482 2.24127 7.5822 1.79865 7.03619 1.79865C6.49018 1.79865 6.04756 2.24127 6.04756 2.78728V3.70851ZM7.26021 8.0524C6.71421 8.0524 6.27158 8.49503 6.27158 9.04104C6.27158 9.58704 6.71421 10.0297 7.26021 10.0297H16.739C17.285 10.0297 17.7277 9.58704 17.7277 9.04104C17.7277 8.49503 17.285 8.0524 16.739 8.0524H7.26021ZM7.33817 13.8353C7.89742 13.8353 8.35078 13.3819 8.35078 12.8227C8.35078 12.2634 7.89742 11.8101 7.33817 11.8101C6.77892 11.8101 6.32556 12.2634 6.32556 12.8227C6.32556 13.3819 6.77892 13.8353 7.33817 13.8353ZM11.9995 13.8357C12.5588 13.8357 13.0122 13.3824 13.0122 12.8231C13.0122 12.2639 12.5588 11.8105 11.9995 11.8105C11.4403 11.8105 10.9869 12.2639 10.9869 12.8231C10.9869 13.3824 11.4403 13.8357 11.9995 13.8357ZM17.6738 12.8231C17.6738 13.3824 17.2204 13.8357 16.6612 13.8357C16.1019 13.8357 15.6486 13.3824 15.6486 12.8231C15.6486 12.2639 16.1019 11.8105 16.6612 11.8105C17.2204 11.8105 17.6738 12.2639 17.6738 12.8231ZM8.35069 16.8455C8.35069 17.4047 7.89733 17.8581 7.33808 17.8581C6.77883 17.8581 6.32547 17.4047 6.32547 16.8455C6.32547 16.2862 6.77883 15.8329 7.33808 15.8329C7.89733 15.8329 8.35069 16.2862 8.35069 16.8455ZM13.0123 16.8455C13.0123 17.4047 12.559 17.8581 11.9997 17.8581C11.4405 17.8581 10.9871 17.4047 10.9871 16.8455C10.9871 16.2862 11.4405 15.8329 11.9997 15.8329C12.559 15.8329 13.0123 16.2862 13.0123 16.8455ZM16.6613 17.8581C17.2206 17.8581 17.674 17.4047 17.674 16.8455C17.674 16.2862 17.2206 15.8329 16.6613 15.8329C16.1021 15.8329 15.6487 16.2862 15.6487 16.8455C15.6487 17.4047 16.1021 17.8581 16.6613 17.8581Z" fill="white"/>
</g>
</svg>
