<svg width="24" height="24" viewBox="0 0 24 24" fill="none" xmlns="http://www.w3.org/2000/svg">
<path fill-rule="evenodd" clip-rule="evenodd" d="M12.3574 7.09765C12.3574 8.39786 11.3034 9.45188 10.0032 9.45188C8.70301 9.45188 7.64899 8.39786 7.64899 7.09765C7.64899 5.79745 8.70301 4.74343 10.0032 4.74343C11.3034 4.74343 12.3574 5.79745 12.3574 7.09765ZM10.003 13.0994C9.30995 13.0994 8.63749 13.1631 7.9962 13.2791C4.5482 13.9029 2.00122 16.0421 2.00122 17.958C2.00122 20.2302 5.58373 21.328 10.003 21.328C14.4222 21.328 18.0052 20.2302 18.0052 17.958C18.0052 16.0422 15.458 13.903 12.0101 13.2791C11.3688 13.1631 10.6963 13.0995 10.0032 13.0994H10.003ZM10.003 11.5234C9.36709 11.5234 8.76253 11.3893 8.21603 11.1478C6.66195 10.461 5.57744 8.90597 5.57744 7.09765C5.57744 4.65336 7.55893 2.67188 10.0032 2.67188C12.4475 2.67188 14.429 4.65336 14.429 7.09765C14.429 8.90601 13.3444 10.461 11.7903 11.1478C11.2438 11.3893 10.6392 11.5234 10.0032 11.5234H10.003ZM10.003 19.2564C7.92228 19.2564 6.20602 18.9926 5.0903 18.5623C4.53482 18.3481 4.2488 18.1383 4.12555 18.0097C4.09755 17.9805 4.0817 17.9594 4.07343 17.9471C4.08588 17.8266 4.28583 17.1771 5.46486 16.4193C6.57156 15.7081 8.18178 15.171 10.003 15.171C11.8242 15.171 13.4346 15.7081 14.5414 16.4194C15.7204 17.177 15.9205 17.8265 15.933 17.947C15.9247 17.9594 15.9088 17.9805 15.8809 18.0096C15.7576 18.1383 15.4715 18.348 14.9159 18.5623C13.8001 18.9926 12.0837 19.2564 10.003 19.2564ZM15.6299 10.637C15.7518 10.6506 15.8757 10.6576 16.0012 10.6576C17.8332 10.6576 19.3184 9.17238 19.3184 7.34033C19.3184 5.50827 17.8332 4.0231 16.0012 4.0231C15.9842 4.0231 15.9674 4.02323 15.9505 4.02348C15.5642 4.02926 15.3984 4.46995 15.5703 4.81591C15.9119 5.50326 16.1039 6.27803 16.1039 7.09765C16.1039 8.09442 15.8199 9.02483 15.3283 9.81236C15.1239 10.1398 15.2463 10.5943 15.6299 10.637ZM20.5084 17.2712C21.4362 16.855 21.9988 16.2599 21.9988 15.4804C21.9988 13.7773 19.3133 11.8388 16.0009 11.8388C15.6331 11.8388 15.2729 11.8627 14.9233 11.9076C14.3664 11.979 14.3977 12.7064 14.9293 12.8872C17.4059 13.7289 19.2221 15.2751 19.7082 16.8182C19.8173 17.1642 20.1773 17.4197 20.5084 17.2712Z" fill="url(#paint0_linear_2328_2065)"/>
<defs>
<linearGradient id="paint0_linear_2328_2065" x1="2.07755" y1="3.23156" x2="24.238" y2="6.60105" gradientUnits="userSpaceOnUse">
<stop stop-color="#F16B41"/>
<stop offset="1" stop-color="#C51841"/>
</linearGradient>
</defs>
</svg>
