<svg width="25" height="24" viewBox="0 0 25 24" fill="none" xmlns="http://www.w3.org/2000/svg">
<path fill-rule="evenodd" clip-rule="evenodd" d="M22.3501 13.15C22.3501 13.15 21.9696 13.15 21.5001 13.15C21.0307 13.15 20.6501 13.15 20.6501 13.15L20.6501 15.2C20.6501 16.0541 20.6501 16.5859 20.6501 17.0898C20.6501 17.57 20.6501 17.8042 20.6501 18.1172C20.6501 18.8377 20.6501 19.15 20.6501 19.15C20.6501 19.15 19.2081 19.15 18.5955 19.15C18.0281 19.15 17.5543 19.15 16.7001 19.15L8.30015 19.15C7.44604 19.15 6.96592 19.15 6.38607 19.15C5.9332 19.15 5.75584 19.15 5.42954 19.15C4.72824 19.15 4.3882 19.15 4.3882 19.15C4.35081 18.6923 4.35015 16.0541 4.35015 15.2L4.35015 13.15C4.35015 13.169 3.96959 13.15 3.50015 13.15C3.0307 13.15 2.65015 13.15 2.65015 13.15L2.65015 15.2L2.65015 15.2358C2.65014 16.0455 2.6938 20.2664 2.6938 20.8067L7.16821 20.85C7.7229 20.8502 7.45466 20.85 8.26429 20.85L8.30015 20.85L16.7001 20.85L16.736 20.85C17.5456 20.85 18.5002 20.85 19.1096 20.85C19.6956 20.85 21.0868 20.8065 22.3065 20.8063C22.3065 19.9618 22.3501 17.7869 22.3501 17.2181C22.3501 16.6189 22.3502 16.0454 22.3501 15.2358L22.3501 15.2L22.3501 13.15ZM12.5002 2.99986L7.50024 7.99987C7.50024 7.99987 7.6683 8.16792 8.00024 8.49987C8.33219 8.83181 8.50024 8.99987 8.50024 8.99987L11.6502 6.05202L11.6502 14.8499C11.6502 14.8499 12.0307 14.8499 12.5002 14.8499C12.9696 14.8499 13.3502 14.8499 13.3502 14.8499L13.3502 6.05202L16.5002 8.99987C16.5002 8.99987 16.6683 8.83181 17.0002 8.49987C17.3322 8.16792 17.5002 7.99987 17.5002 7.99987L12.5002 2.99986Z" fill="white"/>
</svg>
