<svg width="24" height="24" viewBox="0 0 24 24" fill="none" xmlns="http://www.w3.org/2000/svg">
<path fill-rule="evenodd" clip-rule="evenodd" d="M13.557 3.67928C14.0349 3.67928 14.1286 3.68489 14.2076 3.70342C14.2951 3.72395 14.379 3.75727 14.4568 3.80232C14.527 3.843 14.599 3.9032 14.9468 4.23091L18.0401 7.14585C18.4176 7.50159 18.4872 7.5762 18.5342 7.65C18.5862 7.73179 18.6248 7.82133 18.6487 7.91528C18.6702 8.00006 18.6768 8.10191 18.6768 8.62062V17.5825C18.6768 19.0948 17.4507 20.3208 15.9384 20.3208H8.06202C6.54965 20.3208 5.32363 19.0948 5.32363 17.5825V6.41766C5.32363 4.9053 6.54965 3.67928 8.06202 3.67928H13.557ZM14.6247 1.92612C14.3132 1.85303 13.9936 1.85332 13.6311 1.85365L13.557 1.8537H8.06202C5.54141 1.8537 3.49805 3.89705 3.49805 6.41766V17.5825C3.49805 20.1031 5.54141 22.1464 8.06202 22.1464H15.9384C18.459 22.1464 20.5023 20.1031 20.5023 17.5825V8.62062L20.5024 8.54006C20.5028 8.14718 20.5031 7.8008 20.4182 7.4661C20.3466 7.18427 20.2306 6.91563 20.0746 6.67028C19.8893 6.37891 19.637 6.14161 19.3508 5.87245L19.2921 5.81723L16.1988 2.90229L16.1449 2.85145C15.8813 2.60264 15.6489 2.3832 15.3721 2.2228C15.1389 2.08766 14.8871 1.98769 14.6247 1.92612ZM14.0031 4.72697C13.769 4.51189 13.391 4.67794 13.391 4.99583V7.34754C13.391 8.0197 13.9359 8.56459 14.608 8.56459H17.1581C17.4862 8.56459 17.6478 8.16536 17.412 7.93713L15.8244 6.4004L14.0031 4.72697ZM7.54745 11.9999C7.54745 11.4958 7.95612 11.0871 8.46024 11.0871H11.6669C12.171 11.0871 12.5796 11.4958 12.5796 11.9999C12.5796 12.504 12.171 12.9127 11.6669 12.9127L8.46024 12.9127C7.95612 12.9127 7.54745 12.504 7.54745 11.9999ZM8.46024 14.855C7.95612 14.855 7.54745 15.2636 7.54745 15.7678C7.54745 16.2719 7.95612 16.6806 8.46024 16.6806H14.8735C15.3776 16.6806 15.7863 16.2719 15.7863 15.7678C15.7863 15.2636 15.3776 14.855 14.8735 14.855H8.46024Z" fill="#EDEDED"/>
</svg>
