<svg width="24" height="24" viewBox="0 0 24 24" fill="none" xmlns="http://www.w3.org/2000/svg">
<g opacity="0.5">
<path d="M5.72996 16.6797L6.57348 16.0435L6.57064 16.0397L5.72996 16.6797ZM11.0864 21.6855L10.5142 22.5737L10.5162 22.5749L11.0864 21.6855ZM12.9086 21.6855L12.3341 20.7988L12.3301 20.8013L12.9086 21.6855ZM18.27 16.6797L19.1109 17.3195L19.1109 17.3194L18.27 16.6797ZM4.55583 10.3854C4.55583 6.39314 7.90219 3.12346 11.9934 3.12346V1.01033C6.78476 1.01033 2.4427 5.17707 2.4427 10.3854H4.55583ZM6.57064 16.0397C5.30009 14.3707 4.55583 12.4385 4.55583 10.3854H2.4427C2.4427 12.9685 3.38256 15.3405 4.88928 17.3197L6.57064 16.0397ZM11.6587 20.7973C9.63336 19.4925 8.02075 17.9622 6.57347 16.0435L4.88645 17.316C6.4746 19.4215 8.26771 21.1263 10.5142 22.5737L11.6587 20.7973ZM12.3301 20.8013C12.2878 20.8291 12.1727 20.8749 12.0056 20.8765C11.8413 20.878 11.7185 20.8356 11.6567 20.796L10.5162 22.5749C10.9879 22.8774 11.5331 22.994 12.025 22.9895C12.5141 22.985 13.0434 22.8599 13.4871 22.5696L12.3301 20.8013ZM17.4292 16.04C15.9676 17.9611 14.3493 19.493 12.3341 20.7988L13.4831 22.5722C15.7155 21.1258 17.5108 19.4226 19.1109 17.3195L17.4292 16.04ZM19.4442 10.3854C19.4442 12.4382 18.6991 14.3706 17.4291 16.04L19.1109 17.3194C20.6163 15.3406 21.5573 12.9688 21.5573 10.3854H19.4442ZM11.9934 3.12346C16.0989 3.12346 19.4442 6.39418 19.4442 10.3854H21.5573C21.5573 5.17603 17.2142 1.01033 11.9934 1.01033V3.12346ZM14.0249 10.7663C14.0249 11.8847 13.1183 12.7914 11.9998 12.7914V14.9045C14.2853 14.9045 16.1381 13.0518 16.1381 10.7663H14.0249ZM11.9998 8.74121C13.1183 8.74121 14.0249 9.64787 14.0249 10.7663H16.1381C16.1381 8.48082 14.2853 6.62808 11.9998 6.62808V8.74121ZM9.97476 10.7663C9.97476 9.64787 10.8814 8.74121 11.9998 8.74121V6.62808C9.71437 6.62808 7.86162 8.48082 7.86162 10.7663H9.97476ZM11.9998 12.7914C10.8814 12.7914 9.97476 11.8847 9.97476 10.7663H7.86162C7.86162 13.0518 9.71437 14.9045 11.9998 14.9045V12.7914Z" fill="white"/>
</g>
</svg>
