<svg width="24" height="24" viewBox="0 0 24 24" fill="none" xmlns="http://www.w3.org/2000/svg">
<path d="M5.72972 16.6797L6.57324 16.0435L6.5704 16.0397L5.72972 16.6797ZM11.0862 21.6855L10.514 22.5737L10.5159 22.5749L11.0862 21.6855ZM12.9084 21.6855L12.3338 20.7988L12.3299 20.8013L12.9084 21.6855ZM18.2698 16.6797L19.1107 17.3195L19.1107 17.3194L18.2698 16.6797ZM4.55559 10.3854C4.55559 6.39314 7.90195 3.12346 11.9932 3.12346V1.01033C6.78452 1.01033 2.44246 5.17707 2.44246 10.3854H4.55559ZM6.5704 16.0397C5.29984 14.3707 4.55559 12.4385 4.55559 10.3854H2.44246C2.44246 12.9685 3.38232 15.3405 4.88903 17.3197L6.5704 16.0397ZM11.6584 20.7973C9.63312 19.4925 8.02051 17.9622 6.57323 16.0435L4.8862 17.316C6.47436 19.4215 8.26747 21.1263 10.514 22.5737L11.6584 20.7973ZM12.3299 20.8013C12.2875 20.8291 12.1725 20.8749 12.0054 20.8765C11.8411 20.878 11.7182 20.8356 11.6564 20.796L10.5159 22.5749C10.9876 22.8774 11.5328 22.994 12.0247 22.9895C12.5138 22.985 13.0431 22.8599 13.4868 22.5696L12.3299 20.8013ZM17.4289 16.04C15.9673 17.9611 14.3491 19.493 12.3338 20.7988L13.4829 22.5722C15.7153 21.1258 17.5106 19.4226 19.1107 17.3195L17.4289 16.04ZM19.4439 10.3854C19.4439 12.4382 18.6988 14.3706 17.4289 16.04L19.1107 17.3194C20.616 15.3406 21.5571 12.9688 21.5571 10.3854H19.4439ZM11.9932 3.12346C16.0986 3.12346 19.4439 6.39418 19.4439 10.3854H21.5571C21.5571 5.17603 17.2139 1.01033 11.9932 1.01033V3.12346ZM14.0247 10.7663C14.0247 11.8847 13.118 12.7914 11.9996 12.7914V14.9045C14.2851 14.9045 16.1378 13.0518 16.1378 10.7663H14.0247ZM11.9996 8.74121C13.118 8.74121 14.0247 9.64787 14.0247 10.7663H16.1378C16.1378 8.48082 14.2851 6.62808 11.9996 6.62808V8.74121ZM9.97451 10.7663C9.97451 9.64787 10.8812 8.74121 11.9996 8.74121V6.62808C9.71412 6.62808 7.86138 8.48082 7.86138 10.7663H9.97451ZM11.9996 12.7914C10.8812 12.7914 9.97451 11.8847 9.97451 10.7663H7.86138C7.86138 13.0518 9.71412 14.9045 11.9996 14.9045V12.7914Z" fill="white"/>
</svg>
