<svg width="24" height="24" viewBox="0 0 24 24" fill="none" xmlns="http://www.w3.org/2000/svg">
<g opacity="0.5">
<path fill-rule="evenodd" clip-rule="evenodd" d="M6.07108 9.92925L6.33655 9.87413H7.64663H16.3559H17.6642L17.9303 9.92954C19.1268 10.1787 20.0248 11.2422 20.0248 12.5109V17.8828C20.0248 19.339 18.8443 20.5196 17.388 20.5196H6.61197C5.1557 20.5196 3.97516 19.339 3.97516 17.8827V12.5109C3.97516 11.2417 4.87396 10.1778 6.07108 9.92925ZM22.0024 12.5109C22.0024 10.2865 20.4285 8.42968 18.3335 7.99346V7.89652V7.24728C18.3335 4.07469 15.7616 1.50281 12.589 1.50281H11.4135C8.24091 1.50281 5.66903 4.07469 5.66903 7.24728L5.66903 7.89652L5.66903 7.99295C3.57279 8.42821 1.99756 10.2856 1.99756 12.5109V17.8827C1.99756 20.4312 4.0635 22.4972 6.61197 22.4972H17.388C19.9365 22.4972 22.0024 20.4312 22.0024 17.8828V12.5109ZM7.64663 7.24728C7.64663 6.7797 7.73182 6.33202 7.88753 5.91892C8.42462 4.494 9.80069 3.48041 11.4135 3.48041H12.589C14.2018 3.48041 15.5779 4.494 16.115 5.91892C16.2704 6.33123 16.3555 6.77797 16.3559 7.24457L16.3559 7.24728L16.3559 7.89652H14.3783H9.62423H7.64663V7.24728ZM12.9887 14.3066C12.9887 13.7605 12.546 13.3178 11.9999 13.3178C11.4538 13.3178 11.0111 13.7605 11.0111 14.3066V16.0872C11.0111 16.6333 11.4538 17.076 11.9999 17.076C12.546 17.076 12.9887 16.6333 12.9887 16.0872V14.3066Z" fill="white"/>
</g>
</svg>
