<svg width="24" height="24" viewBox="0 0 24 24" fill="none" xmlns="http://www.w3.org/2000/svg">
<path fill-rule="evenodd" clip-rule="evenodd" d="M3.50195 16.1114C3.50197 17.51 4.33876 18.773 5.62674 19.3183L12.0017 22.0172C13.5326 22.6653 15.2285 21.5416 15.2285 19.8792V4.12077C15.2285 2.4584 13.5326 1.3347 12.0017 1.9828L5.62674 4.68175C4.33876 5.22704 3.50197 6.48997 3.50195 7.88862V16.1114ZM5.2432 7.88865C5.24321 7.18932 5.6616 6.55786 6.30559 6.28521L12.6806 3.58626C13.0633 3.42424 13.4873 3.70516 13.4873 4.12075V19.8793C13.4873 20.2949 13.0633 20.5758 12.6806 20.4138L6.30559 17.7148C5.6616 17.4422 5.24321 16.8107 5.2432 16.1114V7.88865Z" fill="url(#paint0_linear_2308_1728)"/>
<path d="M20.1656 12.6271C20.6076 12.3258 20.6076 11.6742 20.1656 11.3729L17.3745 9.47005C16.8707 9.12657 16.188 9.48739 16.188 10.0972V13.9029C16.188 14.5126 16.8707 14.8735 17.3745 14.53L20.1656 12.6271Z" fill="url(#paint1_linear_2308_1728)"/>
<path d="M15.1412 20.517C15.7561 20.5101 16.2937 20.4894 16.7522 20.4278C17.481 20.3298 18.1389 20.1143 18.6676 19.5855C19.1964 19.0568 19.4119 18.3989 19.5099 17.6701C19.6027 16.9797 19.6027 16.11 19.6026 15.067C19.6026 14.7281 19.2293 14.522 18.9426 14.7026L18.2674 15.1279C18.1356 15.2108 18.0697 15.2523 18.0194 15.3055C17.9522 15.3765 17.9047 15.4618 17.8797 15.5564C17.8611 15.6272 17.8605 15.706 17.8594 15.8638C17.8546 16.5315 17.8384 17.0343 17.7842 17.4381C17.7121 17.9738 17.5877 18.203 17.4364 18.3543C17.2851 18.5056 17.0559 18.63 16.5202 18.7021C16.1755 18.7484 15.7586 18.7669 15.2285 18.7744L15.2285 19.8792C15.2285 20.1026 15.1979 20.3162 15.1412 20.517Z" fill="url(#paint2_linear_2308_1728)"/>
<path d="M15.2285 5.40497L15.2285 4.12077C15.2285 3.96291 15.2132 3.80988 15.1842 3.6628C15.7812 3.67022 16.3044 3.69136 16.7522 3.75157C17.481 3.84955 18.1389 4.06508 18.6676 4.5938C19.1964 5.12252 19.4119 5.78048 19.5099 6.50924C19.6027 7.19967 19.6027 8.06939 19.6026 9.11236C19.6026 9.37333 19.3151 9.53204 19.0943 9.39296L18.2665 8.87162C18.1348 8.78863 18.0689 8.74713 18.0187 8.69414C17.9516 8.62338 17.9045 8.53906 17.8793 8.44489C17.8604 8.37436 17.8595 8.29507 17.8578 8.13649C17.8513 7.55673 17.8335 7.10812 17.7842 6.74126C17.7121 6.20558 17.5877 5.97632 17.4364 5.82504C17.2851 5.67377 17.0559 5.5493 16.5202 5.47728C16.1755 5.43093 15.7586 5.41238 15.2285 5.40497Z" fill="url(#paint3_linear_2308_1728)"/>
<defs>
<linearGradient id="paint0_linear_2308_1728" x1="3.56682" y1="2.40883" x2="22.5703" y2="4.65382" gradientUnits="userSpaceOnUse">
<stop stop-color="#F16B41"/>
<stop offset="1" stop-color="#C51841"/>
</linearGradient>
<linearGradient id="paint1_linear_2308_1728" x1="3.56682" y1="2.40883" x2="22.5703" y2="4.65382" gradientUnits="userSpaceOnUse">
<stop stop-color="#F16B41"/>
<stop offset="1" stop-color="#C51841"/>
</linearGradient>
<linearGradient id="paint2_linear_2308_1728" x1="3.56682" y1="2.40883" x2="22.5703" y2="4.65382" gradientUnits="userSpaceOnUse">
<stop stop-color="#F16B41"/>
<stop offset="1" stop-color="#C51841"/>
</linearGradient>
<linearGradient id="paint3_linear_2308_1728" x1="3.56682" y1="2.40883" x2="22.5703" y2="4.65382" gradientUnits="userSpaceOnUse">
<stop stop-color="#F16B41"/>
<stop offset="1" stop-color="#C51841"/>
</linearGradient>
</defs>
</svg>
