<svg width="125" height="21" viewBox="0 0 125 21" fill="none" xmlns="http://www.w3.org/2000/svg">
<path d="M11.821 5.59723L10.5014 8.35888H18.3972L16.8016 11.6904H8.90576L5.70772 18.3253H0.767578L7.33199 4.64796L8.48665 2.26569H21.3377L19.7404 5.59723H11.821Z" fill="white"/>
<path d="M20.0491 18.3253C17.5243 18.3253 16.2787 16.619 17.2971 14.4786L23.1882 2.26569H28.1149L22.6933 13.531C22.3079 14.3444 22.7758 15.022 23.7672 15.022H26.9855L33.1223 2.26569H38.0743L30.3434 18.3253H20.0491Z" fill="white"/>
<path d="M56.6156 2.26569C55.6528 4.26859 49.8475 16.3208 48.8847 18.3253H44.4815L41.6201 8.62891L36.9426 18.3253H32.0176L39.7484 2.26569H44.1516L47.013 11.9605L51.6906 2.26569H56.6156Z" fill="white"/>
<path d="M72.1351 2.26569L70.5395 5.59723L70.3712 5.94844L57.8786 15.0203H65.9949L64.3992 18.3336H50.5635L52.1591 15.0203L52.3779 14.6691L64.8705 5.59723H56.6987L58.2943 2.26569H72.1351Z" fill="white"/>
<path d="M84.7925 2.26569C87.3509 2.26569 88.588 3.99855 87.5714 6.1373L83.5537 14.4786C82.5084 16.619 79.6184 18.3253 77.06 18.3253H70.5662C69.356 18.3253 68.3646 17.9194 67.8732 17.2154C67.3497 16.4831 67.3228 15.509 67.8176 14.4786L71.8354 6.11079C72.8806 3.99855 75.7706 2.26569 78.3021 2.26569H84.7925ZM76.5651 15.022C77.5548 15.022 78.6556 14.346 79.068 13.531L82.1499 7.08656C82.5623 6.24663 82.0943 5.59557 81.1046 5.59557H78.8206C77.8308 5.59557 76.73 6.24498 76.3177 7.08656L73.2072 13.531C72.8217 14.3444 73.2896 15.022 74.281 15.022H76.5651Z" fill="white"/>
<path d="M108.399 2.26569C107.436 4.26859 101.631 16.3208 100.668 18.3253H96.2647L93.4033 8.62891L88.7258 18.3253H83.8008L91.5316 2.26569H95.9348L98.7963 11.9605L103.474 2.26569H108.399Z" fill="white"/>
<path d="M111.757 8.35888H120.589L118.993 11.6904H112.261C111.269 11.6904 110.168 12.3663 109.756 13.1814L108.876 15.022H117.406L115.81 18.3353H102.347L105.294 12.2321C106.304 10.0917 109.197 8.35888 111.757 8.35888ZM123.54 2.26569L121.944 5.59723H108.482L110.078 2.26569H123.54Z" fill="white"/>
</svg>
