<svg width="36" height="35" viewBox="0 0 36 35" fill="none" xmlns="http://www.w3.org/2000/svg">
<path fill-rule="evenodd" clip-rule="evenodd" d="M29.7488 7.13689C31.0527 7.13689 32.7339 6.01168 33.4844 4.63432L36 0H15.6197C14.3158 0 12.6345 1.12732 11.8861 2.50257L10.9931 4.14058L8.47754 8.74735C9.43346 7.5395 12.3494 7.21741 17.2149 7.2386C20.2902 7.25132 29.7488 7.13689 29.7488 7.13689Z" fill="white"/>
<path fill-rule="evenodd" clip-rule="evenodd" d="M30.7003 27.5431L26.1304 27.6025C26.1304 27.6025 23.6148 27.6364 22.6631 30.0902C21.9629 31.885 21.0175 34.1757 19.9609 34.7521H28.6103C29.9142 34.7351 31.0378 33.5612 31.7694 32.1753L32.6436 30.5267L34.3374 27.3291C34.3374 27.3291 32.4256 27.488 30.7003 27.5431Z" fill="white"/>
<path fill-rule="evenodd" clip-rule="evenodd" d="M28.8984 13.7991L28.6279 13.8161C28.6992 13.8161 28.7705 13.8013 28.8376 13.7991H16.941C15.4275 13.7991 14.3961 14.6171 13.8175 16.0284C12.9182 18.2131 11.6688 20.9339 11.6688 20.9339H17.7879L14.6309 27.7339L12.6876 31.9147C11.9309 33.3408 11.4194 34.3262 11.0273 35L14.5701 34.9386L16.419 34.8157C17.9682 34.7139 19.597 33.8388 20.2448 32.4593L28.8984 13.7991Z" fill="white"/>
<path d="M8.9114 23.5806C7.44399 26.6998 7.04778 26.8841 0 27.3313C0 27.3313 4.97873 16.4945 7.81294 10.5634C8.91979 8.24516 13.473 8.44435 15.9885 8.32568C15.9864 8.32568 11.0266 19.0628 8.9114 23.5806Z" fill="white"/>
</svg>
