<svg width="24" height="24" viewBox="0 0 24 24" fill="none" xmlns="http://www.w3.org/2000/svg">
<path fill-rule="evenodd" clip-rule="evenodd" d="M14.5606 1.59326C13.8024 1.17791 12.8739 0.997578 11.9997 0.999032C11.1271 1.00048 10.1989 1.18332 9.44314 1.60687L4.10572 4.56544L4.10533 4.56566C3.30712 5.00777 2.63994 5.74257 2.17499 6.53111C1.71 7.31968 1.39014 8.25887 1.39014 9.17028V14.8203C1.39014 15.7317 1.71 16.6709 2.17499 17.4595C2.6397 18.2476 3.30642 18.982 4.10408 19.4242L4.10419 19.4243L4.10572 19.4251L9.44408 22.3942L9.44645 22.3955C10.202 22.813 11.1321 22.9928 12.0051 22.9928C12.8782 22.9928 13.8083 22.813 14.5638 22.3955L14.5662 22.3942L19.9046 19.4251L19.9058 19.4244C20.7036 18.9823 21.3705 18.2477 21.8353 17.4595C22.3003 16.6709 22.6201 15.7317 22.6201 14.8203V9.17028C22.6201 8.25887 22.3003 7.31968 21.8353 6.53111C21.3704 5.74266 20.7033 5.00793 19.9052 4.56581L19.9046 4.56544L14.5662 1.59636L14.5662 1.59634L14.5606 1.59326ZM10.4197 3.35226C10.8034 3.13683 11.3742 3.00008 12.0031 2.99903C12.63 2.99799 13.2054 3.13207 13.5971 3.34591L13.5997 3.3473L18.9341 6.31421L18.9357 6.31512C19.1856 6.4535 19.4433 6.67007 19.6816 6.94507L11.9999 11.3947L4.32281 6.95187C4.56274 6.67364 4.82259 6.45463 5.07455 6.31512L5.07495 6.3149L10.4149 3.3549L10.415 3.35491L10.4197 3.35226ZM3.43172 8.74695C3.40413 8.89558 3.39014 9.03781 3.39014 9.17028V14.8203C3.39014 15.2889 3.56527 15.8797 3.89779 16.4436C4.23025 17.0074 4.66294 17.4475 5.07455 17.6754L5.0762 17.6764L10.4138 20.645L10.4149 20.6456C10.5788 20.7361 10.7774 20.8125 11.0001 20.8705V13.1268L3.43172 8.74695ZM13.0001 20.8731C13.2269 20.8148 13.429 20.7374 13.5954 20.6456L13.5964 20.645L18.9341 17.6764L18.9357 17.6754C19.3473 17.4475 19.78 17.0074 20.1125 16.4436C20.445 15.8797 20.6201 15.2889 20.6201 14.8203V9.17028C20.6201 9.0351 20.6056 8.88975 20.5768 8.7378L13.0001 13.1266V20.8731Z" fill="url(#paint0_linear_2328_2071)"/>
<defs>
<linearGradient id="paint0_linear_2328_2071" x1="1.47117" y1="1.65884" x2="25.0983" y2="4.89397" gradientUnits="userSpaceOnUse">
<stop stop-color="#F16B41"/>
<stop offset="1" stop-color="#C51841"/>
</linearGradient>
</defs>
</svg>
