<svg width="24" height="24" viewBox="0 0 24 24" fill="none" xmlns="http://www.w3.org/2000/svg">
<path d="M19.5841 14.4056L19.584 14.4056V14.4182C19.584 15.3736 18.8941 16.0055 18.2013 16.1611L18.1404 16.1748L18.0843 16.1957L18.0835 16.196L18.0833 16.1961L18.0829 16.1962L18.0714 16.2003C18.0591 16.2046 18.038 16.2119 18.0084 16.2217C17.9491 16.2413 17.8553 16.271 17.728 16.3075C17.4733 16.3806 17.0844 16.4809 16.5682 16.5822C15.536 16.7848 13.9947 16.9913 12 16.9913C10.0053 16.9913 8.46395 16.7848 7.43176 16.5822C6.91559 16.4809 6.52666 16.3806 6.27199 16.3075C6.14465 16.271 6.0509 16.2413 5.99161 16.2217C5.96196 16.2119 5.94093 16.2046 5.92863 16.2003L5.91715 16.1962L5.91674 16.1961L5.91647 16.196L5.91573 16.1957L5.90182 16.1905L5.8854 16.1851C5.06981 15.9155 4.41595 15.3206 4.41595 14.4182H4.41604L4.41587 14.4056C4.41207 14.1296 4.49791 13.6927 4.74689 13.3411C4.94751 13.0577 5.19669 12.7748 5.48895 12.4447L4.8033 11.8377L5.48895 12.4447L5.51177 12.4189C5.84912 12.0379 6.2472 11.5884 6.55489 11.0962C6.87731 10.5804 7.13983 9.95906 7.13983 9.22883C7.13983 5.82443 9.2734 3.8972 11.7612 3.8972H12.2388C14.7266 3.8972 16.8602 5.82443 16.8602 9.22883C16.8602 9.95906 17.1227 10.5805 17.4451 11.0962C17.7528 11.5884 18.1509 12.0379 18.4882 12.4189L18.511 12.4447C18.8033 12.7748 19.0525 13.0577 19.2531 13.3411C19.5021 13.6927 19.5879 14.1296 19.5841 14.4056Z" stroke="url(#paint0_linear_2355_2155)" stroke-width="1.83151"/>
<path d="M11.358 20.1032C11.1078 20.1032 10.8838 19.991 10.7335 19.8142H13.6962C13.546 19.991 13.322 20.1032 13.0717 20.1032H11.358Z" stroke="url(#paint1_linear_2355_2155)" stroke-width="1.83151"/>
<defs>
<linearGradient id="paint0_linear_2355_2155" x1="3.56489" y1="3.42921" x2="22.3488" y2="6.46403" gradientUnits="userSpaceOnUse">
<stop stop-color="#F16B41"/>
<stop offset="1" stop-color="#C51841"/>
</linearGradient>
<linearGradient id="paint1_linear_2355_2155" x1="9.64283" y1="18.9621" x2="14.8891" y2="20.7812" gradientUnits="userSpaceOnUse">
<stop stop-color="#F16B41"/>
<stop offset="1" stop-color="#C51841"/>
</linearGradient>
</defs>
</svg>
