<svg width="24" height="24" viewBox="0 0 24 24" fill="none" xmlns="http://www.w3.org/2000/svg">
<g opacity="0.5">
<path fill-rule="evenodd" clip-rule="evenodd" d="M10.6642 1.9939C5.8683 1.9939 1.99951 5.92048 1.99951 10.7405C1.99951 15.5606 5.8683 19.4872 10.6642 19.4872C15.4601 19.4872 19.3288 15.5606 19.3288 10.7405C19.3288 8.42438 18.4187 6.20085 16.795 4.5597C15.1709 2.91816 12.9658 1.9939 10.6642 1.9939ZM4.08975 10.7405C4.08975 7.05374 7.04374 4.08414 10.6642 4.08414C12.4042 4.08414 14.0752 4.78269 15.3091 6.02979C16.5433 7.27727 17.2386 8.97157 17.2386 10.7405C17.2386 14.4273 14.2846 17.397 10.6642 17.397C7.04374 17.397 4.08975 14.4273 4.08975 10.7405ZM19.1106 17.6387C18.7024 17.2305 18.0407 17.2305 17.6326 17.6387C17.2244 18.0468 17.2244 18.7085 17.6326 19.1167L20.2159 21.7C20.624 22.1082 21.2858 22.1082 21.6939 21.7C22.1021 21.2919 22.1021 20.6302 21.6939 20.222L19.1106 17.6387Z" fill="white"/>
</g>
</svg>
