<svg width="24" height="24" viewBox="0 0 24 24" fill="none" xmlns="http://www.w3.org/2000/svg">
<g opacity="0.5">
<path fill-rule="evenodd" clip-rule="evenodd" d="M11.9943 6.72299C16.7283 6.72299 19.2661 10.3337 20.1774 12C19.2661 13.6664 16.7283 17.2771 11.9943 17.2771C7.54083 17.2771 4.84797 13.6819 3.83036 11.9654C4.75994 10.2802 7.2951 6.72299 11.9943 6.72299ZM21.8906 11.5408C22.0365 11.8313 22.0365 12.1688 21.8906 12.4592C21.1077 14.0175 18.1222 19.0076 11.9943 19.0076C6.18608 19.0076 2.99792 14.0548 2.12957 12.4768C1.96403 12.176 1.95624 11.8212 2.11122 11.5148C2.91394 9.92779 5.90017 4.99243 11.9943 4.99243C18.1222 4.99243 21.1077 9.98254 21.8906 11.5408ZM10.0697 12.0615C10.0697 10.9987 10.9312 10.1371 11.994 10.1371C13.0568 10.1371 13.9184 10.9987 13.9184 12.0615C13.9184 13.1243 13.0568 13.9859 11.994 13.9859C10.9312 13.9859 10.0697 13.1243 10.0697 12.0615ZM11.994 8.40656C9.97547 8.40656 8.3391 10.0429 8.3391 12.0615C8.3391 14.0801 9.97547 15.7164 11.994 15.7164C14.0126 15.7164 15.649 14.0801 15.649 12.0615C15.649 10.0429 14.0126 8.40656 11.994 8.40656Z" fill="white"/>
</g>
</svg>
