<svg width="24" height="24" viewBox="0 0 24 24" fill="none" xmlns="http://www.w3.org/2000/svg">
<path d="M9.33333 1.33333C9.33333 1.33333 9.33333 0 10.6667 0C12 0 12 1.33333 12 1.33333V2.66667C12 2.66667 12 4 10.6667 4C9.33333 4 9.33333 2.66667 9.33333 2.66667V1.33333ZM20 9.33333C20 9.33333 21.3333 9.33333 21.3333 10.6667C21.3333 12 20 12 20 12H18.6667C18.6667 12 17.3333 12 17.3333 10.6667C17.3333 9.33333 18.6667 9.33333 18.6667 9.33333H20ZM2.66667 9.33333C2.66667 9.33333 4 9.33333 4 10.6667C4 12 2.66667 12 2.66667 12H1.33333C1.33333 12 0 12 0 10.6667C0 9.33333 1.33333 9.33333 1.33333 9.33333H2.66667ZM5.248 4.02867C5.248 4.02867 6.19067 4.97133 5.248 5.914C4.30533 6.85667 3.36267 5.914 3.36267 5.914L2.41933 4.972C2.41933 4.972 1.47667 4.02933 2.41933 3.086C3.36267 2.14333 4.30533 3.086 4.30533 3.086L5.248 4.02867ZM17.9713 5.914C17.9713 5.914 17.0287 6.85667 16.086 5.914C15.1433 4.97133 16.086 4.02867 16.086 4.02867L17.0287 3.086C17.0287 3.086 17.9713 2.14333 18.914 3.086C19.8567 4.02867 18.914 4.97133 18.914 4.97133L17.9713 5.914Z" fill="#FFAC33"/>
<path d="M10.666 16.6666C13.9797 16.6666 16.666 13.9803 16.666 10.6666C16.666 7.35292 13.9797 4.66663 10.666 4.66663C7.35231 4.66663 4.66602 7.35292 4.66602 10.6666C4.66602 13.9803 7.35231 16.6666 10.666 16.6666Z" fill="#FFAC33"/>
<path d="M18.6667 13.3333C18.1167 13.3333 17.5867 13.4166 17.0873 13.5713C16.496 11.8813 14.892 10.6666 13 10.6666C10.9707 10.6666 9.272 12.064 8.80067 13.9473C8.298 13.5673 7.67933 13.3333 7 13.3333C5.34333 13.3333 4 14.6766 4 16.3333C4 16.736 4.082 17.1186 4.226 17.4693C3.94 17.39 3.64467 17.3333 3.33333 17.3333C1.492 17.3333 0 18.8253 0 20.6666C0 22.508 1.492 24 3.33333 24H18.6667C21.612 24 24 21.6126 24 18.6666C24 15.7213 21.612 13.3333 18.6667 13.3333Z" fill="#E1E8ED"/>
</svg>
