<svg width="24" height="24" viewBox="0 0 24 24" fill="none" xmlns="http://www.w3.org/2000/svg">
<path d="M13.5549 4.29976L15.1387 7.49359C15.3547 7.93818 15.9306 8.36463 16.4166 8.44629L19.2872 8.92718C21.123 9.23567 21.555 10.5785 20.2321 11.9032L18.0004 14.1534C17.6224 14.5345 17.4154 15.2695 17.5324 15.7957L18.1714 18.5812C18.6753 20.7861 17.5144 21.639 15.5796 20.4867L12.8889 18.8807C12.403 18.5903 11.6021 18.5903 11.1071 18.8807L8.41644 20.4867C6.49065 21.639 5.32078 20.777 5.82473 18.5812L6.46366 15.7957C6.58064 15.2695 6.37367 14.5345 5.99571 14.1534L3.76395 11.9032C2.4501 10.5785 2.87305 9.23567 4.70885 8.92718L7.57953 8.44629C8.05648 8.36463 8.63242 7.93818 8.84839 7.49359L10.4322 4.29976C11.2961 2.56675 12.7 2.56675 13.5549 4.29976Z" stroke="white" stroke-width="2" stroke-linecap="round" stroke-linejoin="round"/>
</svg>
