<svg width="12" height="12" viewBox="0 0 12 12" fill="none" xmlns="http://www.w3.org/2000/svg">
<path opacity="0.8" d="M6.77744 2.14988L7.56935 3.74679C7.67734 3.96909 7.96531 4.18232 8.20828 4.22315L9.64362 4.46359C10.5615 4.61784 10.7775 5.28927 10.1161 5.95162L9.00019 7.07672C8.81121 7.26726 8.70772 7.63473 8.76622 7.89786L9.08568 9.29062C9.33765 10.393 8.75722 10.8195 7.78982 10.2433L6.44447 9.44033C6.2015 9.29516 5.80104 9.29516 5.55357 9.44033L4.20822 10.2433C3.24533 10.8195 2.66039 10.3885 2.91236 9.29062L3.23183 7.89786C3.29032 7.63473 3.18683 7.26726 2.99785 7.07672L1.88198 5.95162C1.22505 5.28927 1.43653 4.61784 2.35443 4.46359L3.78977 4.22315C4.02824 4.18232 4.31621 3.96909 4.4242 3.74679L5.21611 2.14988C5.64806 1.28337 6.34998 1.28337 6.77744 2.14988Z" fill="white"/>
</svg>
