<svg width="24" height="24" viewBox="0 0 24 24" fill="none" xmlns="http://www.w3.org/2000/svg">
<g opacity="0.5">
<path fill-rule="evenodd" clip-rule="evenodd" d="M12.7366 3.08218C12.889 2.58201 13.4171 2.29797 13.9162 2.44777C15.6321 2.9628 17.19 3.94159 18.4315 5.28833C19.6836 6.64666 20.561 8.32168 20.9861 10.1362C21.1051 10.6439 20.7897 11.1542 20.2816 11.276C19.7736 11.3978 19.2653 11.0849 19.1463 10.5772C18.7935 9.07127 18.067 7.68912 17.0393 6.57433C16.021 5.46963 14.7512 4.67534 13.3643 4.25904C12.8652 4.10925 12.5842 3.58235 12.7366 3.08218ZM12.3105 6.61464C12.5155 6.13343 13.0707 5.90756 13.5506 6.11015C14.5003 6.51113 15.3612 7.11716 16.0755 7.89201C16.9205 8.8086 17.5268 9.92505 17.8494 11.1353C17.9837 11.6391 17.6838 12.1586 17.1796 12.2957C16.6754 12.4328 16.1577 12.1356 16.0234 11.6318C15.7776 10.7095 15.3172 9.86559 14.6834 9.17801C14.1479 8.59712 13.5074 8.1481 12.808 7.85277C12.3281 7.65018 12.1054 7.09585 12.3105 6.61464ZM7.29285 3.05624C6.75722 3.03729 6.2681 3.21384 5.87538 3.42371C5.47693 3.63664 5.11629 3.9167 4.8166 4.18796C4.27101 4.68179 3.81578 5.25071 3.63667 5.55467C3.24717 6.14342 3.05469 6.81903 3.05469 7.5436C3.05469 8.27084 3.24319 9.03641 3.58544 9.81221C4.292 11.5881 5.74218 13.6954 7.40195 15.6073C7.76625 16.0497 8.89782 17.2276 9.48497 17.7865C11.1284 19.3508 12.8972 20.7085 14.4514 21.3823C15.9111 22.0791 17.4053 22.213 18.61 21.3008C18.9123 21.0965 19.4549 20.6196 19.9266 20.0369C20.3958 19.4573 20.9823 18.5475 20.943 17.5472L20.9424 17.5313L20.9412 17.5155C20.8964 16.9014 20.6011 16.3735 20.1968 15.9461C19.9186 15.6481 19.349 15.1463 18.8072 14.7169C18.53 14.4973 18.2407 14.281 17.9799 14.1084C17.85 14.0223 17.7162 13.9398 17.5874 13.8715C17.4742 13.8116 17.3063 13.7305 17.1199 13.6891C16.2096 13.4854 15.5013 13.9113 15.1447 14.1257L15.0991 14.1531L15.5711 14.9442L15.0991 14.1531L15.0743 14.1679L15.0675 14.1719L15.0608 14.1761C14.9625 14.2369 14.8539 14.3125 14.7634 14.3754L14.7633 14.3755L14.7516 14.3836C14.5392 14.5313 14.3635 14.651 14.2106 14.7262L14.1998 14.7314C13.7794 14.5296 13.363 14.2731 12.9563 13.9687C12.5335 13.6523 11.6751 12.7783 11.1134 12.0675C10.662 11.4469 10.2877 10.7849 10.0174 10.1169C10.0237 10.1001 10.0316 10.0808 10.0412 10.0589C10.1124 9.89711 10.2255 9.71226 10.3641 9.48963L10.3722 9.47658L10.3722 9.47655C10.4368 9.3728 10.5144 9.2483 10.5757 9.13573L10.5757 9.13574L10.5787 9.13009L10.5929 9.10366L10.6172 9.05848C10.822 8.67908 11.203 7.97303 11.0218 7.07788C10.9594 6.76294 10.7682 6.42499 10.6305 6.19623C10.4651 5.92144 10.2574 5.61637 10.0462 5.32403C9.63101 4.74919 9.14945 4.15045 8.87067 3.8617L8.87067 3.8617L8.86758 3.85852C8.45326 3.43339 7.94744 3.12797 7.36648 3.06173L7.32977 3.05755L7.29285 3.05624ZM5.27272 6.50068C5.27234 6.5014 5.27319 6.50012 5.27533 6.49693C5.28967 6.47553 5.36178 6.36791 5.50674 6.19377C5.65917 6.01066 5.85946 5.79352 6.08504 5.58934C6.31338 5.38266 6.54729 5.2078 6.76626 5.09079C6.95741 4.98864 7.09533 4.95281 7.1839 4.94622C7.24005 4.9619 7.35241 5.01245 7.51239 5.1762C7.70005 5.37101 8.11946 5.88465 8.51392 6.43078C8.70815 6.69969 8.88289 6.95806 9.01112 7.17106C9.0997 7.31822 9.14159 7.40457 9.15914 7.44076C9.16587 7.45463 9.16902 7.46113 9.16985 7.46084C9.17053 7.46061 9.16969 7.45596 9.168 7.44721L9.169 7.45209C9.20595 7.63305 9.15556 7.78453 8.92727 8.21008L8.92726 8.21009L8.91449 8.23389C8.88254 8.29228 8.83439 8.37026 8.75946 8.49061L9.56176 8.99012L8.75946 8.49061L8.74686 8.51084C8.62367 8.7086 8.44198 9.00026 8.31117 9.29749C8.1978 9.55511 7.99637 10.0827 8.18802 10.6281L8.1923 10.6402L8.19691 10.6523C8.53847 11.5456 9.0217 12.408 9.5969 13.1959L9.60701 13.2098L9.61762 13.2232C10.2357 14.0084 11.2182 15.0288 11.8238 15.482C12.3888 15.9049 12.9909 16.2679 13.6221 16.5461L13.6425 16.5551L13.6634 16.5631C14.2422 16.7862 14.7971 16.544 15.0439 16.4228C15.338 16.2783 15.6233 16.0798 15.8107 15.9494L15.8307 15.9355C15.9335 15.864 16.0001 15.818 16.0499 15.7869L16.0676 15.7763C16.4436 15.5519 16.5637 15.5122 16.6749 15.5277C16.682 15.5312 16.6911 15.5358 16.7022 15.5417C16.758 15.5712 16.8362 15.6181 16.9364 15.6844C17.1358 15.8165 17.3792 15.997 17.6332 16.1983C18.1518 16.6093 18.6362 17.0438 18.8164 17.2374L18.8164 17.2374L18.8222 17.2436C19.0028 17.434 19.0458 17.5667 19.0547 17.639C19.0566 17.9114 18.865 18.3442 18.4575 18.8476C18.2691 19.0803 18.0663 19.289 17.8901 19.4521C17.8026 19.5332 17.7245 19.6003 17.6617 19.6512C17.6303 19.6766 17.6042 19.6967 17.5839 19.7118C17.5738 19.7193 17.5657 19.725 17.5597 19.7292L17.5529 19.7339C17.5512 19.735 17.5505 19.7355 17.5506 19.7354L17.5154 19.758L17.4823 19.7837C17.0672 20.1053 16.4028 20.223 15.2525 19.6702L15.2348 19.6617L15.2169 19.6539C13.9648 19.1148 12.3814 17.9339 10.7882 16.4173C10.2198 15.8763 9.13735 14.7441 8.85629 14.3999L8.84714 14.3887L8.83765 14.3778C7.23047 12.528 5.92804 10.5959 5.33598 9.09898L5.3288 9.08082L5.32087 9.06298C5.0528 8.45936 4.94487 7.95079 4.94487 7.5436C4.94487 7.15879 5.04472 6.84601 5.223 6.58279L5.24995 6.543L5.27272 6.50068Z" fill="white"/>
</g>
</svg>
