<svg width="13" height="11" viewBox="0 0 13 11" fill="none" xmlns="http://www.w3.org/2000/svg">
<path fill-rule="evenodd" clip-rule="evenodd" d="M6.31224 2.92617L6.34042 3.40195L5.87076 3.34369C4.16119 3.12037 2.66767 2.363 1.39959 1.09102L0.779637 0.459879L0.619952 0.92595C0.281797 1.9649 0.497841 3.06211 1.20233 3.80006C1.57806 4.20787 1.49352 4.26613 0.84539 4.02338C0.619952 3.9457 0.422695 3.88744 0.403908 3.91657C0.338156 3.98454 0.563593 4.86814 0.742064 5.21769C0.986288 5.70318 1.48413 6.17896 2.02893 6.46055L2.4892 6.68387L1.9444 6.69358C1.41838 6.69358 1.39959 6.70329 1.45595 6.9072C1.64381 7.53834 2.38588 8.20831 3.21248 8.49961L3.79486 8.70351L3.28763 9.01423C2.53617 9.46088 1.65321 9.71333 0.770244 9.73275C0.347549 9.74246 0 9.7813 0 9.81043C0 9.90753 1.14597 10.4513 1.81289 10.6649C3.81365 11.296 6.19013 11.0242 7.97484 9.94637C9.24293 9.17929 10.511 7.65485 11.1028 6.17896C11.4222 5.39247 11.7415 3.95541 11.7415 3.26602C11.7415 2.81936 11.7697 2.7611 12.2957 2.22707C12.6057 1.91635 12.8969 1.57651 12.9532 1.47941C13.0472 1.29492 13.0378 1.29492 12.5587 1.45999C11.7603 1.75128 11.6476 1.71245 12.0421 1.2755C12.3333 0.964789 12.6808 0.40162 12.6808 0.236553C12.6808 0.207424 12.5399 0.255973 12.3803 0.343361C12.2112 0.440459 11.8355 0.586106 11.5537 0.673494L11.0464 0.838562L10.5862 0.518138C10.3325 0.343361 9.9756 0.149165 9.78773 0.0909061C9.30868 -0.0450315 8.57601 -0.0256119 8.14392 0.129745C6.96977 0.566688 6.2277 1.69303 6.31224 2.92617Z" fill="white"/>
</svg>
