<svg width="24" height="24" viewBox="0 0 24 24" fill="none" xmlns="http://www.w3.org/2000/svg">
<g opacity="0.5">
<path fill-rule="evenodd" clip-rule="evenodd" d="M19.275 4.72593C19.6129 5.06386 19.6129 5.61175 19.2749 5.94968L5.95018 19.2741C5.61224 19.6121 5.06435 19.6121 4.72642 19.2741C4.3885 18.9362 4.3885 18.3883 4.72644 18.0504L5.69268 17.0841C3.7761 15.5633 2.60467 13.6868 2.12909 12.8226C1.96354 12.5217 1.95575 12.1669 2.11073 11.8605C2.9135 10.2734 5.89988 5.3378 11.9943 5.3378C13.7186 5.3378 15.1941 5.73286 16.4417 6.3354L18.0512 4.72591C18.3891 4.38799 18.937 4.38799 19.275 4.72593ZM8.72777 14.0491L6.92671 15.8501C5.55072 14.8048 4.57891 13.5112 4.00156 12.5921C3.89279 12.419 3.889 12.2017 3.99287 12.0256C5.0368 10.2557 7.54606 7.06845 11.9943 7.06845C13.1706 7.06845 14.2113 7.29135 15.1251 7.65195L13.6362 9.14079C13.1425 8.89213 12.5847 8.75211 11.9942 8.75211C9.97558 8.75211 8.33912 10.3886 8.33912 12.4072C8.33912 12.9977 8.47913 13.5555 8.72777 14.0491ZM11.9942 10.4828C12.0893 10.4828 12.1827 10.4896 12.274 10.5029L10.09 12.687C10.0767 12.5956 10.0698 12.5022 10.0698 12.4072C10.0698 11.3444 10.9314 10.4828 11.9942 10.4828ZM15.1015 11.8851L13.7133 13.2732C13.713 13.2738 13.7128 13.2743 13.7125 13.2749L12.8624 14.1252C12.8616 14.1256 12.8609 14.126 12.8602 14.1263L11.4721 15.5144C11.2836 15.7029 11.3723 16.0195 11.6376 16.0452C11.7549 16.0565 11.8739 16.0623 11.9942 16.0623C14.0129 16.0623 15.6494 14.4259 15.6494 12.4072C15.6494 12.2869 15.6435 12.168 15.6322 12.0506C15.6065 11.7853 15.2899 11.6967 15.1015 11.8851ZM9.45518 17.5313C9.60536 17.3811 9.82551 17.3273 10.0314 17.3796C10.6427 17.5349 11.2969 17.623 11.9943 17.623C16.4837 17.623 18.9981 14.3759 20.0233 12.6191C20.1224 12.4493 20.1218 12.2412 20.0227 12.0714C19.6324 11.4027 19.0264 10.5183 18.178 9.67924C17.9409 9.44474 17.9271 9.05951 18.163 8.82371L18.567 8.41968C18.7837 8.20299 19.1332 8.19272 19.3518 8.40745C20.717 9.74817 21.5336 11.175 21.8911 11.8865C22.037 12.177 22.037 12.5145 21.8911 12.8049C21.1081 14.3633 18.1225 19.3537 11.9943 19.3537C10.9688 19.3537 10.0249 19.1993 9.16108 18.9363C8.76594 18.816 8.66428 18.3222 8.95635 18.0301L9.45518 17.5313Z" fill="white"/>
</g>
</svg>
