<svg width="24" height="24" viewBox="0 0 24 24" fill="none" xmlns="http://www.w3.org/2000/svg">
<path fill-rule="evenodd" clip-rule="evenodd" d="M14.2063 3.70571C14.1274 3.68717 14.0337 3.68157 13.556 3.68157H8.0626C6.55069 3.68157 5.32504 4.90722 5.32504 6.41913V17.5806C5.32504 19.0925 6.55069 20.3181 8.0626 20.3181H15.9366C17.4485 20.3181 18.6741 19.0925 18.6741 17.5806V8.62142C18.6741 8.10287 18.6676 8.00105 18.6461 7.91629C18.6222 7.82238 18.5836 7.73286 18.5316 7.6511C18.4847 7.57732 18.4151 7.50273 18.0377 7.1471L14.9453 4.23304C14.5976 3.90542 14.5256 3.84524 14.4554 3.80457C14.3777 3.75954 14.2938 3.72622 14.2063 3.70571ZM13.63 1.85649C13.9924 1.85616 14.3119 1.85587 14.6233 1.92893C14.8856 1.99049 15.1374 2.09043 15.3705 2.22553C15.6472 2.38588 15.8796 2.60525 16.1431 2.85399L16.1969 2.90481L19.2893 5.81887L19.348 5.87408C19.6341 6.14316 19.8863 6.38039 20.0716 6.67167C20.2276 6.91695 20.3435 7.1855 20.415 7.46725C20.5 7.80185 20.4996 8.14813 20.4992 8.54089L20.4992 8.62142V17.5806C20.4992 20.1004 18.4564 22.1432 15.9366 22.1432H8.0626C5.54274 22.1432 3.5 20.1004 3.5 17.5806V6.41913C3.5 3.89928 5.54274 1.85653 8.0626 1.85653H13.556L13.63 1.85649ZM13.3897 4.9967C13.3897 4.6789 13.7676 4.5129 14.0016 4.72792L15.8223 6.40085L17.4095 7.93711C17.6452 8.16527 17.4837 8.56439 17.1557 8.56439H14.6064C13.9344 8.56439 13.3897 8.01965 13.3897 7.34769V4.9967ZM11.5049 10.7173C11.7864 10.5192 12.1616 10.5176 12.4448 10.7133L14.862 12.3833C15.2354 12.6412 15.3289 13.153 15.071 13.5264C14.813 13.8997 14.3012 13.9933 13.9279 13.7353L12.7741 12.9382L12.7741 16.4514C12.7741 16.9052 12.4062 17.2731 11.9524 17.2731C11.4986 17.2731 11.1308 16.9052 11.1308 16.4514V12.99L10.0774 13.7313C9.70631 13.9924 9.19375 13.9033 8.9326 13.5322C8.67144 13.1611 8.76058 12.6485 9.1317 12.3873L11.5049 10.7173Z" fill="url(#paint0_linear_1570_9880)"/>
<defs>
<linearGradient id="paint0_linear_1570_9880" x1="3.56488" y1="2.46505" x2="22.5698" y2="4.72404" gradientUnits="userSpaceOnUse">
<stop stop-color="#F16B41"/>
<stop offset="1" stop-color="#C51841"/>
</linearGradient>
</defs>
</svg>
