<svg width="24" height="24" viewBox="0 0 24 24" fill="none" xmlns="http://www.w3.org/2000/svg">
<mask id="path-1-inside-1_2308_1471" fill="white">
<path fill-rule="evenodd" clip-rule="evenodd" d="M12.0016 11.4939C14.5977 11.4939 16.7022 9.38936 16.7022 6.79332C16.7022 4.19728 14.5977 2.09277 12.0016 2.09277C9.40559 2.09277 7.30108 4.19728 7.30108 6.79332C7.30108 9.38936 9.40559 11.4939 12.0016 11.4939ZM12.0005 21.9072C7.30688 21.9072 3.50195 20.7413 3.50195 18.328C3.50195 15.9147 7.30688 13.1678 12.0005 13.1678C16.6941 13.1678 20.4995 15.9147 20.4995 18.328C20.4995 20.7413 16.6941 21.9072 12.0005 21.9072Z"/>
</mask>
<path d="M12.0005 13.1678L12.0005 15.368L12.0005 15.368L12.0005 13.1678ZM14.502 6.79332C14.502 8.17425 13.3826 9.29371 12.0016 9.29371V13.694C15.8128 13.694 18.9023 10.6045 18.9023 6.79332H14.502ZM12.0016 4.29293C13.3826 4.29293 14.502 5.4124 14.502 6.79332H18.9023C18.9023 2.98216 15.8128 -0.107388 12.0016 -0.107388V4.29293ZM9.50125 6.79332C9.50125 5.4124 10.6207 4.29293 12.0016 4.29293V-0.107388C8.19048 -0.107388 5.10092 2.98217 5.10092 6.79332H9.50125ZM12.0016 9.29371C10.6207 9.29371 9.50125 8.17425 9.50125 6.79332H5.10092C5.10092 10.6045 8.19048 13.694 12.0016 13.694V9.29371ZM1.30179 18.328C1.30179 20.9525 3.415 22.3872 5.19943 23.0754C7.0903 23.8046 9.51677 24.1074 12.0005 24.1074V19.707C9.79061 19.707 7.9678 19.4268 6.78281 18.9698C6.19285 18.7423 5.88907 18.5195 5.75817 18.3829C5.70054 18.3228 5.69137 18.2952 5.69531 18.3044C5.70116 18.3179 5.70211 18.332 5.70211 18.328H1.30179ZM12.0005 10.9676C9.24115 10.9676 6.70207 11.7707 4.80161 12.992C3.02297 14.1351 1.30179 16.0048 1.30179 18.328H5.70211C5.70211 18.2379 5.8834 17.5275 7.18063 16.6938C8.35604 15.9384 10.0662 15.368 12.0005 15.368V10.9676ZM22.6997 18.328C22.6997 16.0047 20.9782 14.135 19.1996 12.992C17.299 11.7707 14.7598 10.9676 12.0005 10.9676L12.0005 15.368C13.9348 15.368 15.6451 15.9384 16.8207 16.6938C18.1181 17.5276 18.2994 18.238 18.2994 18.328H22.6997ZM12.0005 24.1074C14.4842 24.1074 16.9108 23.8046 18.8018 23.0754C20.5862 22.3873 22.6997 20.9526 22.6997 18.328H18.2994C18.2994 18.332 18.3003 18.3179 18.3062 18.3043C18.3101 18.2951 18.3009 18.3227 18.2433 18.3829C18.1124 18.5195 17.8085 18.7422 17.2185 18.9698C16.0333 19.4268 14.2104 19.707 12.0005 19.707V24.1074Z" fill="url(#paint0_linear_2308_1471)" mask="url(#path-1-inside-1_2308_1471)"/>
<defs>
<linearGradient id="paint0_linear_2308_1471" x1="3.56683" y1="2.68721" x2="22.5571" y2="4.99803" gradientUnits="userSpaceOnUse">
<stop stop-color="#F16B41"/>
<stop offset="1" stop-color="#C51841"/>
</linearGradient>
</defs>
</svg>
