<svg width="24" height="24" viewBox="0 0 24 24" fill="none" xmlns="http://www.w3.org/2000/svg">
<g opacity="0.5">
<mask id="path-1-inside-1_2254_487" fill="white">
<path fill-rule="evenodd" clip-rule="evenodd" d="M12.0007 11.4939C14.5967 11.4939 16.7012 9.38936 16.7012 6.79332C16.7012 4.19728 14.5967 2.09277 12.0007 2.09277C9.40462 2.09277 7.30011 4.19728 7.30011 6.79332C7.30011 9.38936 9.40462 11.4939 12.0007 11.4939ZM11.9995 21.9072C7.3059 21.9072 3.50098 20.7413 3.50098 18.328C3.50098 15.9147 7.3059 13.1678 11.9995 13.1678C16.6931 13.1678 20.4985 15.9147 20.4985 18.328C20.4985 20.7413 16.6931 21.9072 11.9995 21.9072Z"/>
</mask>
<path d="M11.9995 13.1678V15.368V15.368V13.1678ZM14.501 6.79332C14.501 8.17425 13.3816 9.29371 12.0007 9.29371V13.694C15.8118 13.694 18.9014 10.6045 18.9014 6.79332H14.501ZM12.0007 4.29293C13.3816 4.29293 14.501 5.4124 14.501 6.79332H18.9014C18.9014 2.98216 15.8118 -0.107388 12.0007 -0.107388V4.29293ZM9.50027 6.79332C9.50027 5.4124 10.6197 4.29293 12.0007 4.29293V-0.107388C8.1895 -0.107388 5.09995 2.98217 5.09995 6.79332H9.50027ZM12.0007 9.29371C10.6197 9.29371 9.50027 8.17425 9.50027 6.79332H5.09995C5.09995 10.6045 8.1895 13.694 12.0007 13.694V9.29371ZM1.30082 18.328C1.30082 20.9525 3.41402 22.3872 5.19845 23.0754C7.08933 23.8046 9.51579 24.1074 11.9995 24.1074V19.707C9.78964 19.707 7.96683 19.4268 6.78184 18.9698C6.19187 18.7423 5.8881 18.5195 5.7572 18.3829C5.69957 18.3228 5.6904 18.2952 5.69434 18.3043C5.70018 18.3179 5.70114 18.332 5.70114 18.328H1.30082ZM11.9995 10.9676C9.24018 10.9676 6.7011 11.7707 4.80063 12.992C3.022 14.1351 1.30082 16.0048 1.30082 18.328H5.70114C5.70114 18.2379 5.88242 17.5275 7.17965 16.6938C8.35506 15.9384 10.0653 15.368 11.9995 15.368V10.9676ZM22.6987 18.328C22.6987 16.0047 20.9773 14.135 19.1986 12.992C17.298 11.7707 14.7589 10.9676 11.9995 10.9676V15.368C13.9338 15.368 15.6441 15.9384 16.8197 16.6938C18.1171 17.5276 18.2984 18.238 18.2984 18.328H22.6987ZM11.9995 24.1074C14.4833 24.1074 16.9098 23.8046 18.8008 23.0754C20.5852 22.3873 22.6987 20.9526 22.6987 18.328H18.2984C18.2984 18.332 18.2993 18.3179 18.3052 18.3043C18.3091 18.2951 18.3 18.3227 18.2423 18.3829C18.1114 18.5194 17.8075 18.7422 17.2175 18.9698C16.0324 19.4268 14.2094 19.707 11.9995 19.707V24.1074Z" fill="white" mask="url(#path-1-inside-1_2254_487)"/>
</g>
</svg>
