<svg width="20" height="20" viewBox="0 0 20 20" fill="none" xmlns="http://www.w3.org/2000/svg">
<path d="M10.833 7.5H5.83301" stroke="#EDEDED" stroke-width="1.5" stroke-linecap="round" stroke-linejoin="round"/>
<path d="M18.3338 9.14165V10.8584C18.3338 11.3167 17.9672 11.6917 17.5005 11.7083H15.8672C14.9672 11.7083 14.1422 11.05 14.0672 10.15C14.0172 9.625 14.2172 9.13333 14.5672 8.79167C14.8755 8.475 15.3005 8.29169 15.7672 8.29169H17.5005C17.9672 8.30835 18.3338 8.68332 18.3338 9.14165Z" stroke="#EDEDED" stroke-width="1.5" stroke-linecap="round" stroke-linejoin="round"/>
<path d="M14.567 8.79168C14.217 9.13334 14.017 9.62502 14.067 10.15C14.142 11.05 14.967 11.7083 15.867 11.7083H17.5003V12.9167C17.5003 15.4167 15.8337 17.0834 13.3337 17.0834H5.83366C3.33366 17.0834 1.66699 15.4167 1.66699 12.9167V7.08335C1.66699 4.81669 3.03366 3.23335 5.15866 2.96668C5.37533 2.93335 5.60033 2.91669 5.83366 2.91669H13.3337C13.5503 2.91669 13.7587 2.92501 13.9587 2.95834C16.1087 3.20834 17.5003 4.80002 17.5003 7.08335V8.2917H15.767C15.3003 8.2917 14.8753 8.47501 14.567 8.79168Z" stroke="#EDEDED" stroke-width="1.5" stroke-linecap="round" stroke-linejoin="round"/>
</svg>
